<svg width="45" height="50" viewBox="0 0 45 50" fill="none" xmlns="http://www.w3.org/2000/svg">
<path d="M29.3749 0.367684C28.8072 0.935336 28.8996 1.37098 29.8237 2.7307C34.1933 9.12008 35.3154 17.1596 32.8732 24.6711C32.2659 26.5193 30.7874 29.4631 29.6917 31.0077C28.0679 33.2651 25.3749 35.8525 23.1571 37.265C21.0581 38.5983 18.3123 39.694 15.6588 40.2617C13.7975 40.6709 9.52027 40.7105 7.6721 40.3409C6.08796 40.0241 4.16058 39.43 2.69525 38.7964C1.30912 38.1891 0.781077 38.1363 0.385041 38.5587C-0.314622 39.3244 -0.143007 39.7733 1.58635 41.7138C5.29589 45.8986 10.3123 48.7237 15.7248 49.7006C17.375 49.991 20.8601 50.0966 22.4706 49.8986C29.8105 48.9877 36.1471 45.0537 40.2923 38.836C45.6387 30.8228 46.2856 20.3807 41.9952 11.6679C40.6091 8.84285 39.0513 6.75706 36.6355 4.40725C34.5365 2.38747 31.3682 0.20927 30.2593 0.0244531C29.8633 -0.0415529 29.7313 0.0112519 29.3749 0.367684Z" fill="black"/>
</svg>
