<svg width="50" height="51" viewBox="0 0 50 51" fill="none" xmlns="http://www.w3.org/2000/svg">
<path d="M33.5746 0.137756C32.8611 0.454892 32.4647 1.15524 31.1829 4.3266C29.8219 7.70939 29.6236 8.55509 30.0068 9.32151C30.6147 10.4843 32.1211 10.5636 33.0329 9.48007C33.5086 8.89866 36.0324 2.50307 36.0324 1.85558C36.0324 0.573819 34.6846 -0.364378 33.5746 0.137756Z" fill="black"/>
<path d="M14.6918 0.177418C13.8461 0.402056 13.225 1.35347 13.344 2.25202C13.4365 2.87308 15.9075 8.72689 16.3964 9.46688C17.0439 10.4447 18.3521 10.6694 19.1317 9.91616C19.581 9.48009 19.832 8.70047 19.7131 8.10584C19.5281 7.28657 16.8589 1.20811 16.5021 0.824905C16.0132 0.309558 15.2468 0.0320634 14.6918 0.177418Z" fill="black"/>
<path d="M22.1313 11.1847C19.3563 11.7661 16.9382 13.0875 14.9429 15.096C10.5954 19.4963 9.60439 26.2223 12.5379 31.6664C16.1321 38.3792 24.3909 41.0352 31.2358 37.6656C39.8777 33.4371 41.8202 21.9277 35.0546 15.096C33.0064 13.0214 30.4561 11.6736 27.5887 11.1318C26.0955 10.8411 23.6113 10.8676 22.1313 11.1847Z" fill="black"/>
<path d="M47.0001 13.5765C45.3483 14.2372 40.9084 16.1796 40.5913 16.3778C39.9702 16.7875 39.6927 17.25 39.6267 18.0032C39.5738 18.6374 39.6002 18.7299 40.0363 19.1924C40.4988 19.6945 40.5252 19.7078 41.4106 19.7078C42.2563 19.7078 42.4941 19.6285 45.4805 18.3467C48.8104 16.9196 49.3786 16.5628 49.6561 15.7171C50.1318 14.2768 48.5197 12.9686 47.0001 13.5765Z" fill="black"/>
<path d="M1.06813 14.0125C0.248858 14.3825 -0.187205 15.3075 0.0770761 16.1136C0.367785 16.9857 0.896346 17.316 4.38485 18.7299C7.87335 20.1438 8.45477 20.2892 9.27404 19.8928C10.6351 19.2453 10.5162 17.3425 9.07583 16.6025C7.80728 15.955 2.61417 13.9332 2.07239 13.8804C1.71562 13.8407 1.31919 13.8936 1.06813 14.0125Z" fill="black"/>
<path d="M40.5648 30.2129C39.5474 30.834 39.4813 32.2215 40.4327 33.0936C40.9613 33.5825 47.0529 36.0403 47.9251 36.1064C49.2465 36.2253 50.1714 35.3532 49.9732 34.1507C49.7882 33.12 49.3258 32.8029 45.5862 31.2965C41.9523 29.8297 41.3973 29.6976 40.5648 30.2129Z" fill="black"/>
<path d="M4.60949 31.6532C2.75952 32.4461 1.10777 33.2257 0.922771 33.3975C0.539564 33.7542 0.222427 34.4149 0.222427 34.851C0.222427 35.3267 0.632062 36.0138 1.08134 36.2913C1.90061 36.8067 2.4556 36.6878 5.74589 35.2871C7.39765 34.5867 8.99654 33.8732 9.30047 33.7014C10.7012 32.8953 10.7937 31.0982 9.47225 30.4111C8.67941 30.0015 8.13763 30.1336 4.60949 31.6532Z" fill="black"/>
<path d="M31.4472 39.7402C31.2093 39.8063 30.8658 40.0706 30.6543 40.3481C29.9936 41.207 30.0861 41.7091 31.5925 45.2108C32.3061 46.8758 33.0329 48.5011 33.2046 48.805C33.6011 49.4922 34.4996 49.9679 35.1735 49.8489C36.1382 49.6639 36.8253 48.6068 36.6271 47.6158C36.5742 47.3779 35.9135 45.7262 35.1603 43.9423C33.7332 40.5859 33.4029 40.0573 32.5572 39.7402C32.1211 39.5684 32.0286 39.5684 31.4472 39.7402Z" fill="black"/>
<path d="M17.8499 39.8724C17.6121 39.9384 17.2553 40.1895 17.0307 40.4406C16.5153 41.022 13.965 47.4044 13.965 48.1047C13.965 48.7522 14.4011 49.5847 14.89 49.8358C15.63 50.219 16.4228 50.0604 17.0835 49.3865C17.6253 48.8447 20.1756 42.4888 20.1756 41.6959C20.1756 41.1013 19.7924 40.2688 19.4092 40.0309C19.026 39.8063 18.3124 39.727 17.8499 39.8724Z" fill="black"/>
</svg>
