<svg width="643" height="1448" viewBox="0 0 643 1448" fill="none" xmlns="http://www.w3.org/2000/svg">
<g opacity="0.3">
<path d="M-198.056 155.561L-62.5996 89.0501L84.7579 119.992L222.609 241.889L328.738 437.268L388.277 676.459L390.764 922.47L336.674 1139.27L233.879 1291.69L98.4227 1358.2L-48.9348 1327.26L-186.786 1205.36L-292.915 1009.98L-352.454 770.792L-354.941 524.781L-300.851 307.985L-198.056 155.561Z" stroke="#9DD2F0" stroke-width="2.2"/>
<path d="M-215.662 168.232L-83.6568 98.1086L63.4851 123.038L203.938 239.34L316.201 429.206L383.262 663.976L394.62 908.423L347.971 1124.33L251.485 1279.02L119.48 1349.14L-27.6621 1324.21L-168.115 1207.91L-280.378 1018.04L-347.439 783.275L-358.797 538.828L-312.148 322.921L-215.662 168.232Z" stroke="#9DD2F0" stroke-width="2.2"/>
<path d="M-232.932 181.618L-104.714 107.167L42.5493 126.799L185.982 236.455L303.664 421.144L378.584 652.207L398.139 893.661L359.268 1109.39L268.754 1265.63L140.537 1340.08L-6.72644 1320.45L-150.496 1210.08L-267.841 1026.11L-342.762 795.044L-362.316 553.589L-323.445 337.858L-232.932 181.618Z" stroke="#9DD2F0" stroke-width="2.2"/>
<path d="M-250.201 195.004L-125.097 117.654L21.9506 131.274L167.985 235.335L291.464 413.797L372.855 640.06L400.606 878.522L370.229 1093.74L286.024 1252.25L160.92 1329.6L13.8723 1315.98L-132.162 1211.91L-255.641 1033.45L-337.033 807.19L-364.783 568.728L-334.406 353.508L-250.201 195.004Z" stroke="#9DD2F0" stroke-width="2.2"/>
<path d="M-266.081 209.483L-144.766 127.806L1.68893 136.464L150.325 234.931L278.887 407.502L367.463 628.629L403.074 863.384L380.137 1077.71L301.904 1237.77L180.589 1319.45L34.1341 1310.79L-114.502 1212.32L-243.064 1039.75L-331.64 818.623L-367.251 583.868L-344.314 369.538L-266.081 209.483Z" stroke="#9DD2F0" stroke-width="2.2"/>
<path d="M-280.911 224.338L-164.098 138.671L-18.9503 142.705L131.951 234.864L265.595 401.543L361.02 616.82L404.826 848.583L389.332 1062.02L316.734 1222.91L199.921 1308.58L54.7733 1304.55L-96.1281 1212.39L-229.772 1045.71L-325.197 830.432L-369.004 598.67L-353.509 385.229L-280.911 224.338Z" stroke="#9DD2F0" stroke-width="2.2"/>
<path d="M-295.74 239.193L-182.041 150.627L-38.538 149.323L114.628 235.173L252.303 395.584L354.913 605.725L405.865 834.117L397.474 1045.95L331.563 1208.06L217.864 1296.62L74.361 1297.93L-78.8053 1212.08L-216.48 1051.67L-319.09 841.527L-370.042 613.134L-361.651 401.298L-295.74 239.193Z" stroke="#9DD2F0" stroke-width="2.2"/>
<path d="M-309.518 254.426L-199.984 162.584L-57.0743 156.319L96.9279 236.534L239.348 390.339L348.092 594.967L406.189 819.989L405.28 1029.17L345.341 1192.83L235.807 1284.67L92.8972 1290.93L-61.105 1210.72L-203.525 1056.91L-312.269 852.284L-370.366 627.262L-369.457 418.081L-309.518 254.426Z" stroke="#9DD2F0" stroke-width="2.2"/>
<path d="M-322.958 270.374L-217.253 175.97L-75.9879 164.367L79.2278 237.895L226.016 386.147L340.894 585.261L406.176 805.147L412.709 1013.44L358.781 1176.88L253.076 1271.28L111.811 1282.88L-43.4047 1209.36L-190.193 1061.1L-305.071 861.991L-370.353 642.105L-376.886 433.813L-322.958 270.374Z" stroke="#9DD2F0" stroke-width="2.2"/>
<path d="M-335.348 286.698L-233.808 189.019L-94.5647 173.129L62.9159 240.348L212.684 381.953L333.358 574.839L405.448 790.641L419.463 996.277L371.171 1160.55L270.345 1257.89L130.388 1274.12L-27.093 1206.9L-176.861 1065.3L-297.536 872.411L-369.625 656.609L-383.64 450.973L-335.348 286.698Z" stroke="#9DD2F0" stroke-width="2.2"/>
<path d="M-347.737 303.022L-250.026 202.782L-112.09 182.268L45.8896 243.137L199.351 377.76L325.446 565.47L404.721 776.136L424.788 979.79L383.56 1144.23L285.849 1244.47L147.913 1264.98L-10.0667 1204.11L-163.528 1069.49L-289.623 881.78L-368.898 671.114L-388.965 467.46L-347.737 303.022Z" stroke="#9DD2F0" stroke-width="2.2"/>
<path d="M-358.738 320.44L-265.569 217.975L-129.278 192.123L29.2004 246.643L185.978 375.335L317.533 556.102L403.278 761.969L430.114 963.304L394.561 1126.81L301.392 1229.28L165.101 1255.13L6.62268 1200.61L-150.155 1071.92L-281.71 891.151L-367.455 685.284L-394.29 483.948L-358.738 320.44Z" stroke="#9DD2F0" stroke-width="2.2"/>
<path d="M-369.024 337.52L-280.399 232.83L-146.466 201.976L12.8481 250.862L172.983 371.856L308.905 547.069L401.122 748.137L434.387 946.44L404.847 1109.73L316.222 1214.42L182.289 1245.27L22.9749 1196.39L-137.16 1075.4L-273.082 900.183L-365.299 699.115L-398.564 500.812L-369.024 337.52Z" stroke="#9DD2F0" stroke-width="2.2"/>
<path d="M-378.596 354.262L-294.513 247.348L-162.266 212.922L-3.16709 255.795L159.947 370.143L300.278 538.036L398.251 734.642L438.661 929.575L414.419 1092.99L330.336 1199.9L198.089 1234.33L38.9903 1191.46L-124.124 1077.11L-264.455 909.214L-362.428 712.608L-402.838 517.675L-378.596 354.262Z" stroke="#9DD2F0" stroke-width="2.2"/>
<path d="M-387.493 372.434L-307.24 262.959L-178.066 223.868L-18.8455 261.443L146.197 368.768L291.987 529.718L395.38 721.148L441.883 912.333L423.316 1074.82L343.062 1184.29L213.889 1223.38L54.6684 1185.81L-110.374 1078.48L-256.164 917.532L-359.557 726.103L-406.061 534.917L-387.493 372.434Z" stroke="#9DD2F0" stroke-width="2.2"/>
<path d="M-396.014 389.554L-319.966 278.569L-193.529 235.528L-33.8094 266.754L133.161 367.055L282.268 522.074L391.794 707.99L444.391 895.428L431.837 1057.7L355.789 1168.68L229.015 1211.01L69.6322 1180.5L-97.338 1080.2L-246.445 925.176L-355.971 739.26L-408.568 551.822L-396.014 389.554Z" stroke="#9DD2F0" stroke-width="2.2"/>
<path d="M-403.145 407.767L-332.018 295.609L-207.603 248.281L-49.1506 273.116L119.748 366.394L273.6 514.808L388.209 694.833L446.185 878.86L438.968 1039.48L367.841 1151.64L243.426 1198.97L84.9735 1174.13L-83.9247 1080.86L-237.777 932.442L-352.386 752.417L-410.362 568.39L-403.145 407.767Z" stroke="#9DD2F0" stroke-width="2.2"/>
<path d="M-409.563 425.642L-343.693 311.597L-222.014 260.319L-63.4403 279.857L106.671 366.448L264.217 507.879L383.909 682.013L447.264 862.63L445.386 1021.61L379.516 1135.65L257.837 1186.93L99.2633 1167.39L-70.8483 1080.8L-228.394 939.372L-348.086 765.238L-411.441 584.621L-409.563 425.642Z" stroke="#9DD2F0" stroke-width="2.2"/>
<path d="M-415.98 443.518L-353.979 328.677L-235.037 273.449L-77.7301 286.597L93.9319 367.216L254.12 501.287L378.894 669.53L448.006 845.685L451.803 1003.73L389.802 1118.57L270.86 1173.8L113.553 1160.65L-58.1089 1080.03L-218.297 945.964L-343.071 777.721L-412.183 601.566L-415.98 443.518Z" stroke="#9DD2F0" stroke-width="2.2"/>
<path d="M-421.346 461.771L-363.551 345.42L-248.06 286.58L-91.3458 294.766L81.1926 367.985L244.361 495.409L373.165 657.384L448.033 829.077L457.169 985.481L399.374 1101.83L283.883 1160.67L127.169 1152.49L-45.3695 1079.27L-208.537 951.843L-337.342 789.868L-412.21 618.175L-421.346 461.771Z" stroke="#9DD2F0" stroke-width="2.2"/>
<path d="M-425.997 479.687L-372.786 362.878L-259.694 300.802L-104.962 302.936L68.4532 368.753L234.601 489.532L367.436 645.238L447.346 812.806L461.82 967.565L408.609 1084.37L295.517 1146.45L140.785 1144.32L-32.6302 1078.5L-198.778 957.721L-331.613 802.015L-411.523 634.447L-425.997 479.687Z" stroke="#9DD2F0" stroke-width="2.2"/>
<path d="M-429.597 497.98L-380.591 379.66L-271.665 314.308L-118.578 311.104L56.0508 370.235L224.841 483.653L361.329 634.142L445.944 796.871L465.42 949.271L416.414 1067.59L307.488 1132.94L154.4 1136.15L-20.228 1077.02L-189.018 963.598L-325.507 813.109L-410.121 650.38L-429.597 497.98Z" stroke="#9DD2F0" stroke-width="2.2"/>
<path d="M-432.482 515.937L-388.775 397.496L-282.248 328.908L-130.805 320.365L43.9856 372.433L214.703 478.827L354.886 622.334L443.828 781.274L468.305 931.316L424.598 1049.76L318.071 1118.34L166.628 1126.89L-8.16254 1074.82L-178.88 968.425L-319.063 824.919L-408.005 665.978L-432.482 515.937Z" stroke="#9DD2F0" stroke-width="2.2"/>
<path d="M-434.653 533.555L-395.192 415.37L-292.831 343.507L-142.318 329.289L31.5426 375.681L203.851 474.337L348.065 611.575L441.712 765.676L470.476 913.696L431.015 1031.88L328.654 1103.74L178.14 1117.96L4.28021 1071.57L-168.028 972.914L-312.242 835.676L-405.889 681.575L-434.653 533.555Z" stroke="#9DD2F0" stroke-width="2.2"/>
<path d="M-436.487 551.889L-400.895 432.909L-302.362 358.484L-154.545 338.549L19.8143 378.592L194.051 470.225L340.53 601.154L438.881 750.415L472.31 895.362L436.718 1014.34L338.185 1088.77L190.368 1108.7L16.0086 1068.66L-158.228 977.025L-304.707 846.096L-403.058 696.835L-436.487 551.889Z" stroke="#9DD2F0" stroke-width="2.2"/>
<path d="M-437.606 569.886L-406.598 450.448L-311.179 373.124L-165.384 348.903L8.08601 381.504L183.536 466.451L332.994 590.734L434.999 734.778L473.429 877.366L442.421 996.804L347.002 1074.13L201.207 1098.35L27.737 1065.75L-147.713 980.801L-297.171 856.518L-399.176 712.473L-437.606 569.886Z" stroke="#9DD2F0" stroke-width="2.2"/>
<path d="M-438.011 587.546L-411.249 468.363L-319.658 388.479L-176.222 359.256L-3.30526 385.13L173.021 462.676L325.796 581.027L430.74 720.192L473.834 859.706L447.072 978.888L355.482 1058.77L212.045 1088L39.1284 1062.12L-137.198 984.576L-289.973 866.224L-394.917 727.06L-438.011 587.546Z" stroke="#9DD2F0" stroke-width="2.2"/>
<path d="M-437.702 604.869L-415.186 485.942L-327.424 403.496L-186.347 369.272L-14.3597 389.47L162.466 460.667L316.831 571.28L426.48 705.606L473.525 842.383L451.009 961.309L363.247 1043.76L222.17 1077.98L50.1827 1057.78L-126.643 986.585L-281.008 875.971L-390.657 741.646L-437.702 604.869Z" stroke="#9DD2F0" stroke-width="2.2"/>
<path d="M-436.678 621.855L-418.071 503.899L-334.138 418.891L-196.134 380.003L-25.4139 393.811L151.573 457.944L308.918 561.911L421.506 691.357L472.501 825.397L453.894 943.353L369.961 1028.36L231.957 1067.25L61.237 1053.44L-115.75 989.308L-273.095 885.341L-385.683 755.895L-436.678 621.855Z" stroke="#9DD2F0" stroke-width="2.2"/>
<path d="M-434.602 639.218L-421.293 521.141L-340.851 434.286L-205.584 391.448L-36.1313 398.866L141.732 455.598L299.913 553.931L415.818 677.444L470.425 808.034L457.116 926.112L376.674 1012.97L241.407 1055.8L71.9543 1048.39L-105.909 991.654L-264.09 893.322L-379.995 769.808L-434.602 639.218Z" stroke="#9DD2F0" stroke-width="2.2"/>
<path d="M-432.863 655.866L-422.75 538.422L-345.799 449.721L-214.32 402.555L-46.8487 403.921L130.462 453.925L290.571 545.235L409.415 663.868L468.686 791.385L458.573 908.829L381.622 997.53L250.143 1044.7L82.6716 1043.33L-94.6396 993.325L-254.748 902.016L-373.592 783.382L-432.863 655.866Z" stroke="#9DD2F0" stroke-width="2.2"/>
<path d="M-429.359 672.556L-423.869 556.419L-351.462 465.493L-222.004 414.04L-56.5145 409.353L120.244 452.631L281.903 537.968L403.012 650.293L465.182 774.695L459.692 890.832L387.285 981.758L257.828 1033.21L92.3376 1037.9L-84.4212 994.62L-246.08 909.283L-367.189 796.958L-429.359 672.556Z" stroke="#9DD2F0" stroke-width="2.2"/>
<path d="M-426.191 688.53L-424.611 573.364L-355.358 481.305L-229.689 425.525L-66.1804 414.785L110.363 452.051L272.184 530.324L396.231 637.769L462.014 758.72L460.434 873.886L391.181 965.945L265.512 1021.72L102.003 1032.46L-74.5398 995.2L-236.361 916.926L-360.408 809.481L-426.191 688.53Z" stroke="#9DD2F0" stroke-width="2.2"/>
<path d="M-421.972 704.882L-424.301 590.687L-359.591 496.404L-237.373 437.011L-75.5091 420.932L99.767 451.808L262.802 523.395L388.736 625.582L457.795 742.368L460.125 856.564L395.414 950.846L273.196 1010.24L111.332 1026.32L-63.9439 995.443L-226.978 923.856L-352.913 821.668L-421.972 704.882Z" stroke="#9DD2F0" stroke-width="2.2"/>
<path d="M-417.376 720.184L-423.277 607.673L-362.436 512.595L-244.006 448.874L-84.501 427.794L89.8856 451.229L253.419 516.466L380.527 613.733L453.199 727.068L459.1 839.578L398.259 934.657L279.829 998.377L120.324 1019.46L-54.0625 996.023L-217.596 930.785L-344.704 833.518L-417.376 720.184Z" stroke="#9DD2F0" stroke-width="2.2"/>
<path d="M-411.728 735.862L-421.539 624.322L-364.904 527.733L-249.587 461.114L-93.8299 433.941L79.6267 451.7L243.659 510.588L372.317 601.883L447.551 711.389L457.362 822.929L400.727 919.518L285.41 986.137L129.653 1013.31L-43.8036 995.551L-207.836 936.663L-336.494 845.368L-411.728 735.862Z" stroke="#9DD2F0" stroke-width="2.2"/>
<path d="M-406.417 750.825L-420.137 640.256L-367.034 543.586L-255.169 473.354L-101.77 441.18L69.3677 452.171L233.185 505.047L364.445 590.747L442.239 696.425L455.96 806.995L402.857 903.664L290.992 973.896L137.593 1006.07L-33.5448 995.079L-197.362 942.204L-328.622 856.503L-406.417 750.825Z" stroke="#9DD2F0" stroke-width="2.2"/>
<path d="M-399.677 765.116L-416.97 656.231L-368.072 558.052L-260.75 485.595L-110.425 448.756L59.4458 453.358L222.71 499.507L355.143 580.287L435.499 682.136L452.793 791.021L403.895 889.2L296.573 961.656L146.248 998.495L-23.623 993.894L-186.887 947.745L-319.32 866.965L-399.677 765.116Z" stroke="#9DD2F0" stroke-width="2.2"/>
<path d="M-392.936 779.405L-413.802 672.205L-368.774 573.231L-264.902 497.161L-117.651 455.658L49.5241 454.543L212.573 494.679L345.842 569.825L428.76 667.845L449.625 775.045L404.597 874.02L300.726 950.089L153.474 991.592L-13.701 992.707L-176.75 952.571L-310.019 877.425L-392.936 779.405Z" stroke="#9DD2F0" stroke-width="2.2"/>
<path d="M-385.819 792.644L-409.92 687.844L-369.138 589.125L-269.432 509.78L-125.591 462.898L39.9391 456.445L202.772 490.569L336.163 560.416L421.642 654.608L445.743 759.408L404.961 858.127L305.255 937.472L161.414 984.354L-4.1162 990.808L-166.95 956.684L-300.34 886.836L-385.819 792.644Z" stroke="#9DD2F0" stroke-width="2.2"/>
<path d="M-378.701 805.882L-405.323 703.144L-368.41 603.63L-272.533 521.724L-132.48 470.514L30.3544 458.345L192.258 486.793L326.484 551.006L414.525 641.369L441.146 744.107L404.234 843.621L308.356 925.528L168.303 976.738L5.46877 988.907L-156.435 960.458L-290.661 896.246L-378.701 805.882Z" stroke="#9DD2F0" stroke-width="2.2"/>
<path d="M-369.818 819.16L-400.727 718.444L-367.683 618.135L-275.634 533.667L-139.032 478.844L21.1064 460.959L181.743 483.018L316.805 541.595L405.641 628.09L436.55 728.806L403.506 829.115L311.457 913.583L174.855 968.406L14.7166 986.291L-145.92 964.232L-280.982 905.655L-369.818 819.16Z" stroke="#9DD2F0" stroke-width="2.2"/>
<path d="M-361.608 831.01L-395.038 732.357L-366.241 632.303L-278.398 546.325L-145.584 487.175L11.8586 463.574L170.85 480.294L306.034 533.574L397.432 616.24L430.861 714.893L402.064 814.947L314.221 900.925L181.407 960.075L23.9645 983.676L-135.027 966.956L-270.211 913.676L-361.608 831.01Z" stroke="#9DD2F0" stroke-width="2.2"/>
<path d="M-353.062 843.575L-389.013 746.984L-363.747 646.85L-280.447 558.647L-151.421 495.169L3.66211 466.567L160.672 477.235L295.263 525.553L388.885 603.676L424.836 700.267L399.57 800.402L316.27 888.604L187.244 952.082L32.1608 980.684L-124.849 970.017L-259.44 921.698L-353.062 843.575Z" stroke="#9DD2F0" stroke-width="2.2"/>
<path d="M-343.424 854.751L-382.61 760.56L-361.591 660.681L-281.782 570.632L-157.259 503.164L-5.24867 469.897L150.117 475.226L284.829 518.246L379.247 592.501L418.433 686.692L397.414 786.57L317.605 876.62L193.082 944.088L41.0717 977.355L-114.294 972.026L-249.006 929.005L-343.424 854.751Z" stroke="#9DD2F0" stroke-width="2.2"/>
<path d="M-334.122 865.212L-376.207 774.134L-358.383 674.89L-283.117 582.616L-162.759 511.872L-13.8225 473.941L139.562 473.217L274.018 511.991L369.945 582.039L412.03 673.116L394.206 772.361L318.94 864.635L198.582 935.379L49.6456 973.31L-103.739 974.034L-238.195 935.26L-334.122 865.212Z" stroke="#9DD2F0" stroke-width="2.2"/>
<path d="M-323.769 876.05L-368.712 786.321L-354.797 688.047L-283.738 594.263L-167.545 520.243L-22.3965 477.985L128.629 472.259L262.869 505.021L359.592 571.2L404.535 660.929L390.62 759.204L319.561 852.988L203.368 927.008L58.2194 969.266L-92.8057 974.992L-227.046 942.23L-323.769 876.05Z" stroke="#9DD2F0" stroke-width="2.2"/>
<path d="M-314.09 885.461L-360.88 799.223L-350.497 700.868L-284.358 605.911L-171.994 529.33L-30.2558 481.692L118.747 471.68L252.395 499.481L349.913 561.791L396.703 648.029L386.32 746.384L320.181 841.341L207.817 917.923L66.0788 965.56L-82.9244 975.572L-216.572 947.772L-314.09 885.461Z" stroke="#9DD2F0" stroke-width="2.2"/>
<path d="M-303.36 895.248L-352.67 811.072L-346.197 713.688L-283.927 617.935L-175.728 538.078L-37.7783 486.113L107.814 470.722L241.206 494.276L339.183 552.003L388.493 636.179L382.02 733.563L319.75 829.316L211.551 909.173L73.6012 961.138L-71.9915 976.529L-205.383 952.975L-303.36 895.248Z" stroke="#9DD2F0" stroke-width="2.2"/>
<path d="M-292.252 903.984L-344.798 822.208L-341.183 726.171L-283.118 628.909L-179.463 546.827L-45.3007 490.535L98.27 470.857L229.303 489.41L328.075 543.268L380.621 625.044L377.005 721.081L318.941 818.343L215.286 900.425L81.1235 956.717L-62.4471 976.395L-193.48 957.842L-292.252 903.984Z" stroke="#9DD2F0" stroke-width="2.2"/>
<path d="M-281.481 912.005L-335.874 833.72L-335.79 737.602L-281.973 640.596L-182.482 555.239L-52.4859 495.67L88.0113 471.328L218.451 484.92L317.304 535.246L371.697 613.53L371.614 709.648L317.796 806.654L218.306 892.012L88.309 951.58L-52.1881 975.923L-182.628 962.331L-281.481 912.005Z" stroke="#9DD2F0" stroke-width="2.2"/>
<path d="M-270.71 920.026L-326.572 844.182L-330.062 749.749L-280.45 651.233L-186.217 563.988L-59.6714 500.807L77.7522 471.799L206.884 480.767L306.533 527.225L362.395 603.069L365.884 697.502L316.273 796.018L222.04 883.263L95.4943 946.444L-41.9294 975.451L-171.061 966.483L-270.71 920.026Z" stroke="#9DD2F0" stroke-width="2.2"/>
<path d="M-259.562 926.997L-316.893 853.592L-323.955 760.844L-278.59 662.584L-188.185 572.778L-66.5198 506.658L67.8304 472.986L194.94 477.667L295.384 520.256L352.716 593.66L359.778 686.408L314.413 784.668L224.008 874.474L102.343 940.594L-32.0075 974.266L-159.118 969.585L-259.562 926.997Z" stroke="#9DD2F0" stroke-width="2.2"/>
<path d="M-247.699 933.629L-307.215 863.002L-317.849 771.939L-276.352 672.884L-190.868 581.904L-72.9907 511.457L58.2454 474.887L184.048 474.944L283.522 513.623L343.037 584.25L353.671 675.313L312.175 774.368L226.691 865.348L108.814 935.795L-22.4227 972.365L-148.225 972.308L-247.699 933.629Z" stroke="#9DD2F0" stroke-width="2.2"/>
<path d="M-236.173 939.548L-297.536 872.412L-310.313 782.36L-274.115 683.183L-192.837 590.694L-78.7876 517.685L49.3751 476.45L172.441 472.558L271.996 507.704L333.358 574.84L346.136 664.892L309.937 764.069L228.66 856.559L115.325 929.231L-13.5523 970.802L-136.618 974.695L-236.173 939.548Z" stroke="#9DD2F0" stroke-width="2.2"/>
<path d="M-224.647 945.465L-287.479 880.77L-303.829 792.403L-270.826 693.859L-194.091 599.145L-84.9214 523.197L39.7903 478.35L161.171 470.885L260.47 501.785L323.302 566.481L339.652 654.848L306.649 753.391L229.914 848.105L120.744 924.053L-3.96735 968.901L-125.348 976.366L-224.647 945.465Z" stroke="#9DD2F0" stroke-width="2.2"/>
<path d="M-212.743 950.333L-276.708 888.792L-295.916 801.773L-267.159 703.485L-195.345 607.599L-90.7183 529.426L30.5425 480.966L149.901 469.214L248.566 496.919L312.531 558.461L331.739 645.479L302.982 743.767L231.168 839.654L126.541 917.826L5.28056 966.286L-114.078 978.039L-212.743 950.333Z" stroke="#9DD2F0" stroke-width="2.2"/>
<path d="M-201.177 954.485L-266.274 896.098L-288.718 811.479L-263.492 713.11L-196.598 616.05L-96.5152 535.654L21.6316 484.295L138.254 468.593L237 492.767L302.097 551.153L324.541 635.773L299.315 734.141L232.421 831.201L132.338 911.598L14.1914 962.956L-102.431 978.659L-201.177 954.485Z" stroke="#9DD2F0" stroke-width="2.2"/>
<path d="M-189.611 958.637L-255.84 903.405L-280.427 819.796L-259.826 722.735L-196.801 624.88L-101.261 542.259L12.7206 487.624L127.658 468.35L225.434 488.614L291.663 543.846L316.25 627.454L295.649 724.515L232.624 822.371L137.084 904.992L23.1022 959.627L-91.8353 978.901L-189.611 958.637Z" stroke="#9DD2F0" stroke-width="2.2"/>
<path d="M-177.667 961.738L-245.029 909.66L-272.137 828.114L-255.782 731.309L-197.34 632.995L-106.006 548.864L4.52429 490.617L116.348 468.444L213.49 485.513L280.852 537.591L307.96 619.137L291.605 715.942L233.163 814.255L141.829 898.387L31.2987 956.634L-80.5249 978.807L-177.667 961.738Z" stroke="#9DD2F0" stroke-width="2.2"/>
<path d="M-165.723 964.839L-233.84 914.864L-263.846 836.433L-250.687 740.261L-196.828 641.489L-110.037 555.133L-4.04964 494.661L105.374 469.253L201.546 482.413L269.663 532.387L299.669 610.819L286.509 706.991L232.651 805.763L145.86 892.119L39.8725 952.591L-69.5516 977.999L-165.723 964.839Z" stroke="#9DD2F0" stroke-width="2.2"/>
<path d="M-154.116 967.225L-223.366 920.405L-255.178 843.698L-245.928 748.497L-196.653 649.267L-114.068 561.401L-11.909 498.368L95.1156 469.724L189.939 480.026L259.189 526.846L291.001 603.552L281.751 698.753L232.476 797.984L149.891 885.85L47.7319 948.883L-59.2926 977.527L-154.116 967.225Z" stroke="#9DD2F0" stroke-width="2.2"/>
<path d="M-142.846 968.897L-211.462 925.271L-246.51 850.964L-241.169 756.734L-195.427 657.422L-117.762 568.384L-19.4313 502.789L84.4792 471.247L178.669 478.353L247.285 521.979L282.333 596.286L276.992 690.516L231.25 789.828L153.585 878.866L55.2543 944.461L-48.6562 976.003L-142.846 968.897Z" stroke="#9DD2F0" stroke-width="2.2"/>
<path d="M-130.862 970.233L-200.947 929.047L-237.465 857.18L-235.697 764.635L-194.915 665.916L-121.456 575.368L-27.3312 508.263L74.1799 473.485L166.685 477.02L236.77 518.205L273.288 590.072L271.519 682.617L230.738 781.336L157.279 871.884L63.1542 938.989L-38.3569 973.767L-130.862 970.233Z" stroke="#9DD2F0" stroke-width="2.2"/>
<path d="M-119.215 970.852L-189.381 933.199L-228.419 863.394L-229.509 772.197L-193.311 673.02L-124.435 582.013L-34.1391 512.347L63.8804 475.722L155.037 476.398L225.204 514.052L264.242 583.856L265.332 675.054L229.134 774.231L160.258 865.238L69.962 934.904L-28.0576 971.529L-119.215 970.852Z" stroke="#9DD2F0" stroke-width="2.2"/>
<path d="M-108.282 971.81L-178.488 935.922L-218.996 868.558L-223.659 779.046L-191.37 680.839L-127.414 588.659L-40.9875 518.197L54.6326 478.337L144.105 475.441L214.311 511.329L254.819 578.693L259.481 668.206L227.193 766.412L163.237 858.592L76.8105 929.054L-18.8096 968.914L-108.282 971.81Z" stroke="#9DD2F0" stroke-width="2.2"/>
<path d="M-96.9712 971.716L-167.596 938.646L-210.288 874.058L-217.808 785.894L-189.766 687.943L-130.057 596.019L-48.1729 523.333L44.6702 481.289L132.794 475.535L203.419 508.605L246.111 573.193L253.631 661.357L225.588 759.308L165.88 851.231L83.9958 923.918L-8.84734 965.962L-96.9712 971.716Z" stroke="#9DD2F0" stroke-width="2.2"/>
<path d="M-85.9979 970.907L-156.704 941.369L-201.202 878.507L-212.295 792.028L-187.825 695.762L-131.985 603.043L-54.3067 528.847L35.0449 484.956L121.821 476.344L192.527 505.882L237.025 568.744L247.781 654.509L223.647 751.489L167.808 844.208L90.1297 918.404L0.778059 962.295L-85.9979 970.907Z" stroke="#9DD2F0" stroke-width="2.2"/>
<path d="M-75.3616 969.384L-145.771 942.327L-191.402 882.619L-205.73 798.539L-185.506 702.53L-133.913 610.067L-60.1037 535.075L26.134 488.285L111.184 477.867L181.594 504.925L227.225 564.632L241.553 648.712L221.329 744.722L169.736 837.185L95.9265 912.176L9.68886 958.966L-75.3616 969.384Z" stroke="#9DD2F0" stroke-width="2.2"/>
<path d="M-64.7251 967.861L-134.501 943.998L-181.938 886.016L-198.787 803.999L-183.187 709.297L-135.841 617.089L-65.523 540.251L17.5602 492.329L100.548 479.389L170.324 503.252L217.761 561.234L234.61 643.252L219.01 737.954L171.664 830.161L101.346 906.999L18.2628 954.921L-64.7251 967.861Z" stroke="#9DD2F0" stroke-width="2.2"/>
<path d="M-54.0887 966.338L-123.905 944.242L-172.475 889.414L-192.559 809.796L-180.154 715.728L-137.054 623.777L-71.3199 546.48L8.27185 496.711L89.9118 480.913L159.728 503.01L208.298 557.837L228.382 637.455L215.977 731.524L172.877 823.475L107.143 900.772L27.5512 950.541L-54.0887 966.338Z" stroke="#9DD2F0" stroke-width="2.2"/>
<path d="M-44.1263 963.386L-114.024 944.822L-163.348 892.097L-185.954 814.542L-177.121 722.158L-138.268 630.463L-76.0653 553.085L0.749456 501.132L79.9494 483.865L149.847 502.43L199.171 555.155L221.777 632.71L212.944 725.094L174.091 816.789L111.888 894.167L35.0736 946.12L-44.1263 963.386Z" stroke="#9DD2F0" stroke-width="2.2"/>
<path d="M-34.164 960.434L-103.05 944.012L-154.222 894.779L-178.634 818.949L-174.088 728.588L-139.481 637.149L-80.8107 559.69L-7.15043 506.604L69.987 486.817L138.873 503.238L190.045 552.471L214.457 628.301L209.911 718.663L175.304 810.102L116.634 887.561L42.9734 940.646L-34.164 960.434Z" stroke="#9DD2F0" stroke-width="2.2"/>
<path d="M-24.2017 957.482L-92.7915 943.541L-144.718 896.411L-172.365 822.981L-170.341 734.682L-139.643 644.213L-84.8416 565.959L-15.0503 512.078L60.0246 489.769L128.614 503.71L180.541 550.84L208.188 624.271L206.164 712.57L175.466 803.038L120.665 881.293L50.8733 935.174L-24.2017 957.482Z" stroke="#9DD2F0" stroke-width="2.2"/>
<path d="M-15.2908 954.152L-82.8696 942.355L-135.929 898.379L-165.045 827.389L-166.931 740.06L-140.142 650.562L-89.5871 572.564L-22.2358 517.213L51.1137 493.098L118.692 504.896L171.752 548.871L200.868 619.862L202.753 707.19L175.965 796.688L125.41 874.687L58.0586 930.037L-15.2908 954.152Z" stroke="#9DD2F0" stroke-width="2.2"/>
<path d="M-6.00239 949.772L-72.9477 941.17L-126.762 899.297L-158.399 830.369L-162.468 745.818L-140.304 657.627L-93.2809 579.548L-29.084 523.065L41.8255 497.48L108.771 506.083L162.585 547.955L194.222 616.883L198.291 701.435L176.127 789.625L129.104 867.705L64.9071 924.188L-6.00239 949.772Z" stroke="#9DD2F0" stroke-width="2.2"/>
<path d="M2.57137 945.727L-63.3629 939.268L-117.595 900.213L-151.417 834.062L-159.058 751.196L-139.751 664.353L-96.2604 586.193L-35.9325 528.915L33.2515 501.523L99.1857 507.982L153.418 547.038L187.239 613.189L194.881 696.055L175.574 782.898L132.083 861.058L71.7554 918.336L2.57137 945.727Z" stroke="#9DD2F0" stroke-width="2.2"/>
<path d="M10.8083 940.969L-54.115 936.653L-108.765 900.416L-144.056 836.705L-154.933 756.238L-139.536 670.365L-99.2398 592.839L-41.7294 535.142L25.0146 506.282L89.9379 510.597L144.588 546.835L179.879 610.546L190.756 691.013L175.359 776.885L135.063 854.412L77.5523 912.108L10.8083 940.969Z" stroke="#9DD2F0" stroke-width="2.2"/>
<path d="M19.0452 936.21L-45.5816 934.375L-100.272 899.903L-137.41 839.684L-151.145 760.565L-138.269 676.755L-102.219 599.485L-47.5263 541.37L16.7778 511.04L81.4045 512.875L136.095 547.347L173.233 607.567L186.968 686.686L174.092 770.495L138.042 847.766L83.3492 905.88L19.0452 936.21Z" stroke="#9DD2F0" stroke-width="2.2"/>
<path d="M26.945 930.737L-36.6708 931.046L-91.7793 899.391L-130.387 841.612L-146.306 765.27L-137.339 682.431L-104.147 606.508L-52.9862 548.313L8.87784 516.513L72.4936 516.205L127.602 547.859L166.21 605.638L182.128 681.98L173.162 764.82L139.97 840.742L88.809 898.938L26.945 930.737Z" stroke="#9DD2F0" stroke-width="2.2"/>
<path d="M34.1305 925.602L-28.0968 927.003L-83.2863 898.88L-123.363 843.541L-141.803 769.261L-136.072 688.822L-106.79 613.869L-58.446 555.256L1.69257 521.65L63.9198 520.25L119.109 548.372L159.186 603.712L177.626 677.991L171.895 758.431L142.613 833.383L94.269 891.996L34.1305 925.602Z" stroke="#9DD2F0" stroke-width="2.2"/>
<path d="M40.9788 919.751L-20.2375 923.295L-75.4675 896.938L-116.677 844.753L-137.301 773.251L-134.09 694.874L-108.003 620.555L-63.1914 561.861L-5.15586 527.5L56.0604 523.956L111.29 550.312L152.5 602.497L173.124 674L169.913 752.377L143.826 826.696L99.0143 885.39L40.9788 919.751Z" stroke="#9DD2F0" stroke-width="2.2"/>
<path d="M47.4902 913.186L-12.3781 919.588L-67.3116 895.712L-109.99 845.967L-132.798 777.241L-132.446 700.212L-109.931 627.578L-66.8853 568.844L-11.6672 534.065L48.201 527.663L103.135 551.539L145.813 601.284L168.621 670.009L168.269 747.038L145.754 819.672L102.708 878.407L47.4902 913.186Z" stroke="#9DD2F0" stroke-width="2.2"/>
<path d="M53.6241 907.673L-4.85564 915.166L-59.4926 893.771L-103.641 846.466L-128.633 780.517L-130.464 706.265L-110.43 633.928L-71.2937 576.164L-17.801 539.579L40.6787 532.085L95.3157 553.48L139.464 600.785L164.456 666.734L166.287 740.986L146.253 813.323L107.117 871.087L53.6241 907.673Z" stroke="#9DD2F0" stroke-width="2.2"/>
<path d="M59.7985 900.393L2.32971 910.031L-52.7253 891.453L-96.2401 847.343L-123.416 784.171L-128.82 711.604L-111.643 640.615L-74.2731 582.81L-23.9755 546.858L33.4933 537.221L88.5483 555.799L132.063 599.909L159.239 663.081L164.643 735.648L147.466 806.637L110.811 864.105L59.7985 900.393Z" stroke="#9DD2F0" stroke-width="2.2"/>
<path d="M64.8809 894.502L8.80062 905.232L-45.2434 888.797L-90.2276 847.127L-118.536 787.11L-126.461 716.605L-111.805 647.678L-77.967 589.793L-29.0578 552.749L27.0224 542.02L81.0664 558.454L126.051 600.124L154.359 660.141L162.284 730.646L147.628 799.573L113.79 857.458L64.8809 894.502Z" stroke="#9DD2F0" stroke-width="2.2"/>
<path d="M70.3407 887.56L15.2715 900.432L-38.476 886.478L-83.8782 847.626L-113.993 789.334L-124.102 721.606L-112.304 654.028L-80.6095 597.153L-34.5178 559.691L20.5515 546.818L74.2989 560.772L119.701 599.625L149.816 657.917L159.925 725.644L148.127 793.223L116.432 850.098L70.3407 887.56Z" stroke="#9DD2F0" stroke-width="2.2"/>
<path d="M74.0347 880.577L21.4054 894.919L-31.331 883.109L-77.1512 847.074L-109.113 792.273L-121.028 726.271L-111.752 660.755L-83.2518 604.514L-38.2116 566.675L14.4177 552.332L67.1542 564.143L112.974 600.178L144.936 654.978L156.851 720.98L147.575 786.497L119.075 842.738L74.0347 880.577Z" stroke="#9DD2F0" stroke-width="2.2"/>
<path d="M78.7801 873.971L27.5393 889.405L-25.2377 879.361L-71.4758 846.143L-103.855 794.16L-117.955 730.935L-111.199 667.481L-84.8428 612.251L-42.957 573.28L8.28374 557.845L61.0607 567.89L107.299 601.108L139.678 653.09L153.778 716.316L147.022 779.769L120.666 834.999L78.7801 873.971Z" stroke="#9DD2F0" stroke-width="2.2"/>
<path d="M82.4739 866.989L32.6216 883.515L-19.1443 875.614L-65.8005 845.213L-99.3124 796.385L-114.881 735.6L-110.984 673.494L-86.7708 619.275L-46.651 580.263L3.20125 563.737L54.9672 571.638L101.623 602.038L135.135 650.866L150.704 711.652L146.806 773.757L122.594 827.976L82.4739 866.989Z" stroke="#9DD2F0" stroke-width="2.2"/>
<path d="M85.8308 859.291L37.704 877.623L-13.7654 872.203L-60.1251 844.283L-94.392 797.558L-111.808 740.264L-109.717 679.884L-87.6472 626.676L-50.0079 587.96L-1.88112 569.627L49.5883 575.048L95.948 602.968L130.215 649.693L147.631 706.987L145.539 767.367L123.47 820.575L85.8308 859.291Z" stroke="#9DD2F0" stroke-width="2.2"/>
<path d="M88.4733 851.93L41.7349 871.355L-8.009 867.741L-54.7866 842.638L-90.186 799.068L-109.071 744.214L-108.45 686.273L-88.8606 633.362L-52.6503 595.32L-5.91202 575.896L43.8319 579.51L90.6095 604.612L126.009 648.183L144.894 703.037L144.272 760.977L124.684 813.888L88.4733 851.93Z" stroke="#9DD2F0" stroke-width="2.2"/>
<path d="M91.4527 845.284L45.7659 865.087L-2.96702 863.616L-49.4481 840.994L-85.2655 800.241L-105.283 748.541L-106.468 692.327L-89.0225 640.426L-55.6297 601.966L-9.94285 582.164L38.7901 583.635L85.2712 606.257L121.089 647.01L141.106 698.709L142.291 754.924L124.846 806.825L91.4527 845.284Z" stroke="#9DD2F0" stroke-width="2.2"/>
<path d="M93.0437 837.547L49.7968 858.819L2.07491 859.492L-44.1097 839.35L-80.345 801.414L-101.832 752.155L-104.823 697.666L-89.1845 647.491L-57.2206 609.705L-13.9738 588.433L33.7482 587.761L79.9328 607.902L116.168 645.838L137.655 695.097L140.647 749.587L125.008 799.762L93.0437 837.547Z" stroke="#9DD2F0" stroke-width="2.2"/>
<path d="M94.9716 830.523L53.1132 852.887L6.06531 854.989L-39.1083 836.991L-75.7616 801.872L-97.6666 755.431L-102.842 703.718L-89.0094 655.269L-59.1485 616.728L-17.2902 594.365L29.7577 592.263L74.9313 610.261L111.585 645.379L133.49 691.821L138.665 743.533L124.832 791.983L94.9716 830.523Z" stroke="#9DD2F0" stroke-width="2.2"/>
<path d="M95.8479 823.122L56.0925 846.241L10.0556 850.486L-34.8215 834.968L-71.1783 802.33L-94.5528 758.329L-100.483 708.719L-88.457 661.995L-60.0251 624.129L-20.2697 601.01L25.7672 596.765L70.6443 612.282L107.001 644.92L130.376 688.922L136.306 738.531L124.28 785.255L95.8479 823.122Z" stroke="#9DD2F0" stroke-width="2.2"/>
<path d="M97.0614 816.436L58.3575 839.932L13.7091 845.27L-29.82 832.61L-66.5947 802.79L-90.3872 761.605L-97.787 714.436L-87.1899 668.386L-61.2385 630.816L-22.5346 607.32L22.1138 601.982L65.6429 614.642L102.418 644.462L126.21 685.647L133.61 732.816L123.013 778.866L97.0614 816.436Z" stroke="#9DD2F0" stroke-width="2.2"/>
<path d="M97.2234 809.372L60.2855 832.909L17.3625 840.053L-25.87 829.873L-62.0113 803.248L-86.5587 764.167L-94.7135 719.1L-85.9229 674.776L-61.4004 637.879L-24.4625 614.343L18.4604 607.199L61.693 617.378L97.8343 644.004L122.382 683.085L130.536 728.152L121.746 772.476L97.2234 809.372Z" stroke="#9DD2F0" stroke-width="2.2"/>
<path d="M97.3854 802.308L62.5505 826.599L20.3015 835.172L-21.92 827.136L-57.7648 802.991L-82.7302 766.727L-91.6399 723.764L-84.6558 681.165L-61.5623 644.943L-26.7274 620.651L15.5216 612.079L57.7431 620.114L93.5879 644.259L118.553 680.523L127.463 723.487L120.479 766.086L97.3854 802.308Z" stroke="#9DD2F0" stroke-width="2.2"/>
<path d="M96.8327 795.581L63.7638 819.913L23.2403 830.292L-18.3072 823.685L-53.5185 802.735L-78.9019 769.289L-88.5666 728.428L-82.6744 687.218L-61.0099 651.67L-27.2265 627.001L12.5825 616.959L53.793 622.851L89.3413 644.515L114.725 677.962L124.389 718.822L118.16 759.318L96.8327 795.581Z" stroke="#9DD2F0" stroke-width="2.2"/>
</g>
</svg>
