<svg xmlns="http://www.w3.org/2000/svg" viewBox="0 0 74.55 86.94"><defs><style>.cls-1{fill:#fff;}.cls-2{isolation:isolate;}</style></defs><g id="Слой_2" data-name="Слой 2"><g id="Слой_1-2" data-name="Слой 1"><path class="cls-1" d="M18.94,48.93a2,2,0,0,1,.93,1.73l0,15.52c0,.68-.34,1-.95.65l-1.23-.71a2,2,0,0,1-.93-1.74l0-15.51c0-.69.34-1,.94-.66Z" transform="translate(-7.05 -5.39)"/><path class="cls-1" d="M40.77,48.84a2.5,2.5,0,0,1,1.13,1.95l0,12.6a.77.77,0,0,1-.34.73l-2.15,1.16a.79.79,0,0,1-.79-.07,2.5,2.5,0,0,1-1.13-2l0-11L28.2,46.83c-1-.56-1.5-2.2-.84-2.65l2.1-1.44a.78.78,0,0,1,.84,0Z" transform="translate(-7.05 -5.39)"/><g class="cls-2"><path class="cls-1" d="M29.71,55.15a2.11,2.11,0,0,1,1,1.77l-.05,15.52c0,.68-.28,1-.88.68l-1-.6a2,2,0,0,1-1.09-1.32L25,61.12c0-.08-.08-.37-.16-.41s-.06.19-.06.29l0,8c0,.68-.38,1-1,.63l-1.24-.72a2,2,0,0,1-.93-1.72l0-15.52c0-.69.35-1,.94-.66l1,.6a1.83,1.83,0,0,1,1,1.3L27.3,63c0,.08.07.34.15.38l.09-.24,0-8.06c0-.69.32-1,.91-.67Z" transform="translate(-7.05 -5.39)"/><path class="cls-1" d="M18.78,36.14a2.4,2.4,0,0,1,.84.91l2.08,3.87c.65,1.2.14,2.24-.84,1.68l-9.3-5.37,0,11.05c0,.78-.56,1-1.14.65a2.25,2.25,0,0,1-.78-.83L7.47,44.47a2.3,2.3,0,0,1-.34-1.13l0-12.6c0-.72.51-1,1.13-.64Z" transform="translate(-7.05 -5.39)"/></g><path class="cls-1" d="M10.36,56.74a2.47,2.47,0,0,1,1.14,2l0,11,9.31,5.37c1,.57,1.48,2.19.83,2.64l-2.1,1.46a.79.79,0,0,1-.84-.06l-10.48-6a2.49,2.49,0,0,1-1.13-1.94l0-12.61a.77.77,0,0,1,.34-.73l2.15-1.17A.77.77,0,0,1,10.36,56.74Z" transform="translate(-7.05 -5.39)"/><path class="cls-1" d="M38.56,73a2.21,2.21,0,0,1,.78.82l2.14,3.64a2.3,2.3,0,0,1,.34,1.13l0,12.61c0,.71-.51,1-1.13.63l-10.47-6a2.4,2.4,0,0,1-.84-.91L27.25,81c-.65-1.21-.13-2.24.85-1.67l9.29,5.36,0-11.06C37.43,72.88,38,72.68,38.56,73Z" transform="translate(-7.05 -5.39)"/><g class="cls-2"><path class="cls-1" d="M48.74,72.93c.58-.34,1.14-.14,1.14.63l0,11.29,9.77-5.64c1-.56,1.5.49.83,1.71l-2.21,4a2.19,2.19,0,0,1-.82.88l-11,6.37c-.62.36-1.13.08-1.13-.63l0-12.77a2.42,2.42,0,0,1,.35-1.15L48,73.72A2.14,2.14,0,0,1,48.74,72.93Z" transform="translate(-7.05 -5.39)"/><path class="cls-1" d="M62.7,52.94c.6-.35.8-.26.8.43v.53a1.33,1.33,0,0,1-.8,1.35l-1.91,1.1A1.43,1.43,0,0,0,60,57.79l0,13.5a1.94,1.94,0,0,1-1,1.69l-1.23.71c-.6.35-1,.12-1-.57l0-13.51c0-.68-.24-.82-.84-.47l-1.91,1.1c-.6.34-.8.25-.8-.43v-.53a1.3,1.3,0,0,1,.8-1.35Z" transform="translate(-7.05 -5.39)"/><path class="cls-1" d="M57.36,42.28a.78.78,0,0,1,.82-.07l2.22,1.46c.68.43.17,2.07-.81,2.64L49.82,52l0,11.29a2.47,2.47,0,0,1-1.13,2,.8.8,0,0,1-.77.08L45.6,64.09a.75.75,0,0,1-.36-.73l0-12.76a2.48,2.48,0,0,1,1.13-2Z" transform="translate(-7.05 -5.39)"/></g><path class="cls-1" d="M78.08,56a.8.8,0,0,1,.77-.08l2.35,1.19a.76.76,0,0,1,.36.73l0,12.77a2.47,2.47,0,0,1-1.13,1.94l-11,6.37a.8.8,0,0,1-.82.07L66.4,77.52c-.68-.44-.17-2.09.82-2.66L77,69.22l0-11.29A2.49,2.49,0,0,1,78.08,56Z" transform="translate(-7.05 -5.39)"/><path class="cls-1" d="M70.12,48.66c2-1.15,3.15-.72,3.15,1.57l0,11.15a5.77,5.77,0,0,1-3.13,5.2l-2.74,1.58c-2,1.15-3.14.71-3.15-1.58l0-11.14a5.79,5.79,0,0,1,3.13-5.2Zm0,14.31,0-10.69c0-.69-.29-1.12-.88-.77l-1,.56a2,2,0,0,0-.88,1.78l0,10.69c0,.69.29,1.13.89.78l1-.57A2,2,0,0,0,70.16,63" transform="translate(-7.05 -5.39)"/><path class="cls-1" d="M80.35,29c.63-.36,1.13-.07,1.13.65l0,12.76a2.32,2.32,0,0,1-.35,1.14l-2.35,3.91a2.18,2.18,0,0,1-.76.8c-.58.33-1.13.13-1.14-.65l0-11.29L67.12,42c-1,.57-1.5-.48-.83-1.7l2.2-4a2.32,2.32,0,0,1,.83-.89Z" transform="translate(-7.05 -5.39)"/><g class="cls-2"><path class="cls-1" d="M56.3,11.74a.79.79,0,0,1,.48.68l-.12,2.42c0,.81-1.73,1.2-2.72.62l-9.27-5.35-9.22,5.36a2.49,2.49,0,0,1-2.27,0,.82.82,0,0,1-.46-.62l-.14-2.42a.77.77,0,0,1,.46-.68L43.52,5.65a2.46,2.46,0,0,1,2.24,0Z" transform="translate(-7.05 -5.39)"/><path class="cls-1" d="M78.4,24.5c.62.36.63.94,0,1.3L67.94,31.88a2.37,2.37,0,0,1-1.18.28l-4.17-.08a2.23,2.23,0,0,1-1.08-.26c-.59-.34-.69-.92,0-1.31l9.22-5.36-9.28-5.36c-1-.57-.33-1.55,1.07-1.57l4.16-.09a2.37,2.37,0,0,1,1.18.28Z" transform="translate(-7.05 -5.39)"/><path class="cls-1" d="M26.67,19.24c.58.34.69.93,0,1.32l-9.21,5.35,9.27,5.36c1,.57.34,1.55-1.06,1.58l-4.18.07a2.22,2.22,0,0,1-1.18-.27L9.78,26.57a.69.69,0,0,1,0-1.31l10.47-6.09a2.3,2.3,0,0,1,1.17-.26L25.6,19A2.31,2.31,0,0,1,26.67,19.24Z" transform="translate(-7.05 -5.39)"/><path class="cls-1" d="M55,35.6a.85.85,0,0,1,.46.62l.14,2.42a.8.8,0,0,1-.47.68L44.67,45.41a2.48,2.48,0,0,1-2.25,0L31.87,39.32a.78.78,0,0,1-.47-.69l.13-2.41c0-.81,1.72-1.2,2.72-.62L43.52,41l9.21-5.35A2.54,2.54,0,0,1,55,35.6Z" transform="translate(-7.05 -5.39)"/></g></g></g></svg>